<mxfile host="app.diagrams.net" modified="2023-02-02T19:41:38.208Z" agent="5.0 (Windows NT 10.0; Win64; x64) AppleWebKit/537.36 (KHTML, like Gecko) Chrome/109.0.0.0 Safari/537.36" etag="F0FzhSZBV_IY6WzuM8pY" version="20.8.15" type="github">
  <diagram id="C5RBs43oDa-KdzZeNtuy" name="Page-1">
    <mxGraphModel dx="1877" dy="549" grid="1" gridSize="10" guides="1" tooltips="1" connect="1" arrows="1" fold="1" page="1" pageScale="1" pageWidth="827" pageHeight="1169" math="0" shadow="0">
      <root>
        <mxCell id="WIyWlLk6GJQsqaUBKTNV-0" />
        <mxCell id="WIyWlLk6GJQsqaUBKTNV-1" parent="WIyWlLk6GJQsqaUBKTNV-0" />
        <mxCell id="42G1Hmii8w1SBgadAZhZ-16" value="User Account" style="swimlane;fontStyle=1;align=center;verticalAlign=top;childLayout=stackLayout;horizontal=1;startSize=26;horizontalStack=0;resizeParent=1;resizeParentMax=0;resizeLast=0;collapsible=1;marginBottom=0;" parent="WIyWlLk6GJQsqaUBKTNV-1" vertex="1">
          <mxGeometry x="80" y="40" width="160" height="160" as="geometry" />
        </mxCell>
        <mxCell id="42G1Hmii8w1SBgadAZhZ-17" value="+ category: string" style="text;strokeColor=none;fillColor=none;align=left;verticalAlign=top;spacingLeft=4;spacingRight=4;overflow=hidden;rotatable=0;points=[[0,0.5],[1,0.5]];portConstraint=eastwest;" parent="42G1Hmii8w1SBgadAZhZ-16" vertex="1">
          <mxGeometry y="26" width="160" height="26" as="geometry" />
        </mxCell>
        <mxCell id="42G1Hmii8w1SBgadAZhZ-18" value="" style="line;strokeWidth=1;fillColor=none;align=left;verticalAlign=middle;spacingTop=-1;spacingLeft=3;spacingRight=3;rotatable=0;labelPosition=right;points=[];portConstraint=eastwest;strokeColor=inherit;" parent="42G1Hmii8w1SBgadAZhZ-16" vertex="1">
          <mxGeometry y="52" width="160" height="8" as="geometry" />
        </mxCell>
        <mxCell id="42G1Hmii8w1SBgadAZhZ-19" value="+ getUserDetails( )&#xa;+ login ( )&#xa;+ userAuthentication( )&#xa;+ captchacode( )&#xa;+ changePassword( )&#xa;+ deleteAccount( )" style="text;strokeColor=none;fillColor=none;align=left;verticalAlign=top;spacingLeft=4;spacingRight=4;overflow=hidden;rotatable=0;points=[[0,0.5],[1,0.5]];portConstraint=eastwest;" parent="42G1Hmii8w1SBgadAZhZ-16" vertex="1">
          <mxGeometry y="60" width="160" height="100" as="geometry" />
        </mxCell>
        <mxCell id="42G1Hmii8w1SBgadAZhZ-20" value="Doctor" style="swimlane;fontStyle=1;align=center;verticalAlign=top;childLayout=stackLayout;horizontal=1;startSize=26;horizontalStack=0;resizeParent=1;resizeParentMax=0;resizeLast=0;collapsible=1;marginBottom=0;" parent="WIyWlLk6GJQsqaUBKTNV-1" vertex="1">
          <mxGeometry x="-220" y="260" width="170" height="240" as="geometry" />
        </mxCell>
        <mxCell id="42G1Hmii8w1SBgadAZhZ-21" value="+ name: string&#xa;+ specialty: string&#xa;+ qualification: string&#xa;+ #id: string&#xa;+ salary: int" style="text;strokeColor=none;fillColor=none;align=left;verticalAlign=top;spacingLeft=4;spacingRight=4;overflow=hidden;rotatable=0;points=[[0,0.5],[1,0.5]];portConstraint=eastwest;" parent="42G1Hmii8w1SBgadAZhZ-20" vertex="1">
          <mxGeometry y="26" width="170" height="94" as="geometry" />
        </mxCell>
        <mxCell id="42G1Hmii8w1SBgadAZhZ-22" value="" style="line;strokeWidth=1;fillColor=none;align=left;verticalAlign=middle;spacingTop=-1;spacingLeft=3;spacingRight=3;rotatable=0;labelPosition=right;points=[];portConstraint=eastwest;strokeColor=inherit;" parent="42G1Hmii8w1SBgadAZhZ-20" vertex="1">
          <mxGeometry y="120" width="170" height="8" as="geometry" />
        </mxCell>
        <mxCell id="42G1Hmii8w1SBgadAZhZ-23" value="+ getSalary ( ): int&#xa;+ getHospitalDetails ( )&#xa;+ checkPatient ( )&#xa;+ prescribeDrugs( ): string&#xa;+ receiveNotices( )&#xa;+ viewSchedule( )&#xa;+ changePatientMedicalFile( )&#xa;" style="text;strokeColor=none;fillColor=none;align=left;verticalAlign=top;spacingLeft=4;spacingRight=4;overflow=hidden;rotatable=0;points=[[0,0.5],[1,0.5]];portConstraint=eastwest;" parent="42G1Hmii8w1SBgadAZhZ-20" vertex="1">
          <mxGeometry y="128" width="170" height="112" as="geometry" />
        </mxCell>
        <mxCell id="42G1Hmii8w1SBgadAZhZ-30" style="edgeStyle=orthogonalEdgeStyle;rounded=0;orthogonalLoop=1;jettySize=auto;html=1;exitX=1;exitY=0.5;exitDx=0;exitDy=0;entryX=0;entryY=0.5;entryDx=0;entryDy=0;startArrow=none;" parent="WIyWlLk6GJQsqaUBKTNV-1" target="42G1Hmii8w1SBgadAZhZ-19" edge="1">
          <mxGeometry relative="1" as="geometry">
            <mxPoint x="60" y="150" as="sourcePoint" />
          </mxGeometry>
        </mxCell>
        <mxCell id="42G1Hmii8w1SBgadAZhZ-32" value="" style="edgeStyle=orthogonalEdgeStyle;rounded=0;orthogonalLoop=1;jettySize=auto;html=1;exitX=1;exitY=0.5;exitDx=0;exitDy=0;endArrow=none;startArrow=none;" parent="WIyWlLk6GJQsqaUBKTNV-1" source="42G1Hmii8w1SBgadAZhZ-31" edge="1">
          <mxGeometry relative="1" as="geometry">
            <mxPoint x="-60" y="333" as="sourcePoint" />
            <mxPoint x="60" y="150" as="targetPoint" />
            <Array as="points" />
          </mxGeometry>
        </mxCell>
        <mxCell id="42G1Hmii8w1SBgadAZhZ-33" value="Patient" style="swimlane;fontStyle=1;align=center;verticalAlign=top;childLayout=stackLayout;horizontal=1;startSize=26;horizontalStack=0;resizeParent=1;resizeParentMax=0;resizeLast=0;collapsible=1;marginBottom=0;" parent="WIyWlLk6GJQsqaUBKTNV-1" vertex="1">
          <mxGeometry x="80" y="260" width="160" height="228" as="geometry" />
        </mxCell>
        <mxCell id="42G1Hmii8w1SBgadAZhZ-34" value="+ name: string&#xa;+ id: string&#xa;+ phoneno: string&#xa;+ adress: string&#xa;+ age: int&#xa;+ sex: string" style="text;strokeColor=none;fillColor=none;align=left;verticalAlign=top;spacingLeft=4;spacingRight=4;overflow=hidden;rotatable=0;points=[[0,0.5],[1,0.5]];portConstraint=eastwest;" parent="42G1Hmii8w1SBgadAZhZ-33" vertex="1">
          <mxGeometry y="26" width="160" height="94" as="geometry" />
        </mxCell>
        <mxCell id="42G1Hmii8w1SBgadAZhZ-35" value="" style="line;strokeWidth=1;fillColor=none;align=left;verticalAlign=middle;spacingTop=-1;spacingLeft=3;spacingRight=3;rotatable=0;labelPosition=right;points=[];portConstraint=eastwest;strokeColor=inherit;" parent="42G1Hmii8w1SBgadAZhZ-33" vertex="1">
          <mxGeometry y="120" width="160" height="8" as="geometry" />
        </mxCell>
        <mxCell id="42G1Hmii8w1SBgadAZhZ-36" value="+ patientDetails ( )&#xa;+ makePayment( ): float&#xa;+ receiveReport( )&#xa;+ bookAppointment( )&#xa;+ receiveTreatmentNotice( )" style="text;strokeColor=none;fillColor=none;align=left;verticalAlign=top;spacingLeft=4;spacingRight=4;overflow=hidden;rotatable=0;points=[[0,0.5],[1,0.5]];portConstraint=eastwest;" parent="42G1Hmii8w1SBgadAZhZ-33" vertex="1">
          <mxGeometry y="128" width="160" height="100" as="geometry" />
        </mxCell>
        <mxCell id="42G1Hmii8w1SBgadAZhZ-37" value="" style="edgeStyle=orthogonalEdgeStyle;rounded=0;orthogonalLoop=1;jettySize=auto;html=1;exitX=1;exitY=0.5;exitDx=0;exitDy=0;endArrow=none;startArrow=none;" parent="WIyWlLk6GJQsqaUBKTNV-1" source="42G1Hmii8w1SBgadAZhZ-21" target="42G1Hmii8w1SBgadAZhZ-31" edge="1">
          <mxGeometry relative="1" as="geometry">
            <mxPoint x="-30" y="360" as="sourcePoint" />
            <mxPoint x="60.00000000000023" y="150" as="targetPoint" />
            <Array as="points">
              <mxPoint x="-20" y="333" />
              <mxPoint x="-20" y="150" />
            </Array>
          </mxGeometry>
        </mxCell>
        <mxCell id="42G1Hmii8w1SBgadAZhZ-31" value="1" style="text;html=1;strokeColor=none;fillColor=none;align=center;verticalAlign=middle;whiteSpace=wrap;rounded=0;" parent="WIyWlLk6GJQsqaUBKTNV-1" vertex="1">
          <mxGeometry x="30" y="140" width="10" height="20" as="geometry" />
        </mxCell>
        <mxCell id="42G1Hmii8w1SBgadAZhZ-45" style="edgeStyle=orthogonalEdgeStyle;rounded=0;orthogonalLoop=1;jettySize=auto;html=1;exitX=1;exitY=0.5;exitDx=0;exitDy=0;entryX=0;entryY=0.5;entryDx=0;entryDy=0;" parent="WIyWlLk6GJQsqaUBKTNV-1" source="42G1Hmii8w1SBgadAZhZ-21" target="42G1Hmii8w1SBgadAZhZ-34" edge="1">
          <mxGeometry relative="1" as="geometry" />
        </mxCell>
        <mxCell id="42G1Hmii8w1SBgadAZhZ-46" value="Appointment" style="swimlane;fontStyle=1;align=center;verticalAlign=top;childLayout=stackLayout;horizontal=1;startSize=26;horizontalStack=0;resizeParent=1;resizeParentMax=0;resizeLast=0;collapsible=1;marginBottom=0;" parent="WIyWlLk6GJQsqaUBKTNV-1" vertex="1">
          <mxGeometry x="440" y="260" width="170" height="186" as="geometry" />
        </mxCell>
        <mxCell id="42G1Hmii8w1SBgadAZhZ-47" value="+ date: string&#xa;+ time: String&#xa;+ doctorName: string&#xa;" style="text;strokeColor=none;fillColor=none;align=left;verticalAlign=top;spacingLeft=4;spacingRight=4;overflow=hidden;rotatable=0;points=[[0,0.5],[1,0.5]];portConstraint=eastwest;" parent="42G1Hmii8w1SBgadAZhZ-46" vertex="1">
          <mxGeometry y="26" width="170" height="54" as="geometry" />
        </mxCell>
        <mxCell id="42G1Hmii8w1SBgadAZhZ-48" value="" style="line;strokeWidth=1;fillColor=none;align=left;verticalAlign=middle;spacingTop=-1;spacingLeft=3;spacingRight=3;rotatable=0;labelPosition=right;points=[];portConstraint=eastwest;strokeColor=inherit;" parent="42G1Hmii8w1SBgadAZhZ-46" vertex="1">
          <mxGeometry y="80" width="170" height="8" as="geometry" />
        </mxCell>
        <mxCell id="42G1Hmii8w1SBgadAZhZ-49" value="+ checkAvailability( ): boolean&#xa;+ sendConfirmationEmail( )&#xa;+ assignDoctor ( )" style="text;strokeColor=none;fillColor=none;align=left;verticalAlign=top;spacingLeft=4;spacingRight=4;overflow=hidden;rotatable=0;points=[[0,0.5],[1,0.5]];portConstraint=eastwest;" parent="42G1Hmii8w1SBgadAZhZ-46" vertex="1">
          <mxGeometry y="88" width="170" height="98" as="geometry" />
        </mxCell>
        <mxCell id="42G1Hmii8w1SBgadAZhZ-52" style="edgeStyle=orthogonalEdgeStyle;rounded=0;orthogonalLoop=1;jettySize=auto;html=1;exitX=1;exitY=0.5;exitDx=0;exitDy=0;entryX=0;entryY=0.5;entryDx=0;entryDy=0;" parent="WIyWlLk6GJQsqaUBKTNV-1" source="42G1Hmii8w1SBgadAZhZ-34" target="42G1Hmii8w1SBgadAZhZ-49" edge="1">
          <mxGeometry relative="1" as="geometry" />
        </mxCell>
        <mxCell id="42G1Hmii8w1SBgadAZhZ-53" value="Administration" style="swimlane;fontStyle=1;align=center;verticalAlign=top;childLayout=stackLayout;horizontal=1;startSize=26;horizontalStack=0;resizeParent=1;resizeParentMax=0;resizeLast=0;collapsible=1;marginBottom=0;" parent="WIyWlLk6GJQsqaUBKTNV-1" vertex="1">
          <mxGeometry x="-220" y="610" width="170" height="202" as="geometry" />
        </mxCell>
        <mxCell id="42G1Hmii8w1SBgadAZhZ-55" value="" style="line;strokeWidth=1;fillColor=none;align=left;verticalAlign=middle;spacingTop=-1;spacingLeft=3;spacingRight=3;rotatable=0;labelPosition=right;points=[];portConstraint=eastwest;strokeColor=inherit;" parent="42G1Hmii8w1SBgadAZhZ-53" vertex="1">
          <mxGeometry y="26" width="170" height="54" as="geometry" />
        </mxCell>
        <mxCell id="42G1Hmii8w1SBgadAZhZ-56" value="+ deleteDoctor( )&#xa;+ editSalary( )&#xa;+ calculateSalary( )&#xa;+ issueNotices( )&#xa;+ provideReports( )&#xa;+ givePrmUpdateDatabase( )" style="text;strokeColor=none;fillColor=none;align=left;verticalAlign=top;spacingLeft=4;spacingRight=4;overflow=hidden;rotatable=0;points=[[0,0.5],[1,0.5]];portConstraint=eastwest;" parent="42G1Hmii8w1SBgadAZhZ-53" vertex="1">
          <mxGeometry y="80" width="170" height="122" as="geometry" />
        </mxCell>
        <mxCell id="42G1Hmii8w1SBgadAZhZ-57" value="" style="endArrow=none;html=1;rounded=0;entryX=0.443;entryY=1.022;entryDx=0;entryDy=0;entryPerimeter=0;" parent="WIyWlLk6GJQsqaUBKTNV-1" target="42G1Hmii8w1SBgadAZhZ-23" edge="1">
          <mxGeometry width="50" height="50" relative="1" as="geometry">
            <mxPoint x="-150" y="610" as="sourcePoint" />
            <mxPoint x="-150" y="540" as="targetPoint" />
          </mxGeometry>
        </mxCell>
        <mxCell id="42G1Hmii8w1SBgadAZhZ-58" value="CLASS" style="rounded=0;whiteSpace=wrap;html=1;" parent="WIyWlLk6GJQsqaUBKTNV-1" vertex="1">
          <mxGeometry x="-320" y="520" width="90" height="40" as="geometry" />
        </mxCell>
        <mxCell id="42G1Hmii8w1SBgadAZhZ-59" value="CLASS" style="rounded=0;whiteSpace=wrap;html=1;" parent="WIyWlLk6GJQsqaUBKTNV-1" vertex="1">
          <mxGeometry x="-50" y="520" width="90" height="40" as="geometry" />
        </mxCell>
        <mxCell id="42G1Hmii8w1SBgadAZhZ-60" value="" style="endArrow=classic;html=1;rounded=0;entryX=1;entryY=0;entryDx=0;entryDy=0;" parent="WIyWlLk6GJQsqaUBKTNV-1" target="42G1Hmii8w1SBgadAZhZ-58" edge="1">
          <mxGeometry width="50" height="50" relative="1" as="geometry">
            <mxPoint x="-210" y="500" as="sourcePoint" />
            <mxPoint x="-190" y="548" as="targetPoint" />
          </mxGeometry>
        </mxCell>
        <mxCell id="42G1Hmii8w1SBgadAZhZ-61" value="" style="endArrow=classic;html=1;rounded=0;entryX=0;entryY=0;entryDx=0;entryDy=0;exitX=0.964;exitY=1.037;exitDx=0;exitDy=0;exitPerimeter=0;" parent="WIyWlLk6GJQsqaUBKTNV-1" target="42G1Hmii8w1SBgadAZhZ-59" edge="1" source="42G1Hmii8w1SBgadAZhZ-23">
          <mxGeometry width="50" height="50" relative="1" as="geometry">
            <mxPoint x="-90" y="488" as="sourcePoint" />
            <mxPoint x="-90" y="548" as="targetPoint" />
          </mxGeometry>
        </mxCell>
        <mxCell id="42G1Hmii8w1SBgadAZhZ-62" value="Staff" style="swimlane;fontStyle=1;align=center;verticalAlign=top;childLayout=stackLayout;horizontal=1;startSize=26;horizontalStack=0;resizeParent=1;resizeParentMax=0;resizeLast=0;collapsible=1;marginBottom=0;" parent="WIyWlLk6GJQsqaUBKTNV-1" vertex="1">
          <mxGeometry x="80" y="610" width="160" height="218" as="geometry" />
        </mxCell>
        <mxCell id="42G1Hmii8w1SBgadAZhZ-63" value="+ name: string&#xa;+ id: string&#xa;+ salary: int&#xa;+ department: string" style="text;strokeColor=none;fillColor=none;align=left;verticalAlign=top;spacingLeft=4;spacingRight=4;overflow=hidden;rotatable=0;points=[[0,0.5],[1,0.5]];portConstraint=eastwest;" parent="42G1Hmii8w1SBgadAZhZ-62" vertex="1">
          <mxGeometry y="26" width="160" height="84" as="geometry" />
        </mxCell>
        <mxCell id="42G1Hmii8w1SBgadAZhZ-64" value="" style="line;strokeWidth=1;fillColor=none;align=left;verticalAlign=middle;spacingTop=-1;spacingLeft=3;spacingRight=3;rotatable=0;labelPosition=right;points=[];portConstraint=eastwest;strokeColor=inherit;" parent="42G1Hmii8w1SBgadAZhZ-62" vertex="1">
          <mxGeometry y="110" width="160" height="8" as="geometry" />
        </mxCell>
        <mxCell id="42G1Hmii8w1SBgadAZhZ-65" value="+ assistPatient( )&#xa;+ getPayment( )&#xa;+ assistDoctor( )&#xa;+ retrieveMedicalFile( )" style="text;strokeColor=none;fillColor=none;align=left;verticalAlign=top;spacingLeft=4;spacingRight=4;overflow=hidden;rotatable=0;points=[[0,0.5],[1,0.5]];portConstraint=eastwest;" parent="42G1Hmii8w1SBgadAZhZ-62" vertex="1">
          <mxGeometry y="118" width="160" height="100" as="geometry" />
        </mxCell>
        <mxCell id="42G1Hmii8w1SBgadAZhZ-66" style="edgeStyle=orthogonalEdgeStyle;rounded=0;orthogonalLoop=1;jettySize=auto;html=1;exitX=1;exitY=0.5;exitDx=0;exitDy=0;entryX=0;entryY=0.5;entryDx=0;entryDy=0;" parent="WIyWlLk6GJQsqaUBKTNV-1" source="42G1Hmii8w1SBgadAZhZ-56" target="42G1Hmii8w1SBgadAZhZ-65" edge="1">
          <mxGeometry relative="1" as="geometry" />
        </mxCell>
        <mxCell id="42G1Hmii8w1SBgadAZhZ-67" value="Patient Database" style="swimlane;fontStyle=1;align=center;verticalAlign=top;childLayout=stackLayout;horizontal=1;startSize=26;horizontalStack=0;resizeParent=1;resizeParentMax=0;resizeLast=0;collapsible=1;marginBottom=0;" parent="WIyWlLk6GJQsqaUBKTNV-1" vertex="1">
          <mxGeometry x="450" y="610" width="170" height="134" as="geometry" />
        </mxCell>
        <mxCell id="42G1Hmii8w1SBgadAZhZ-69" value="" style="line;strokeWidth=1;fillColor=none;align=left;verticalAlign=middle;spacingTop=-1;spacingLeft=3;spacingRight=3;rotatable=0;labelPosition=right;points=[];portConstraint=eastwest;strokeColor=inherit;" parent="42G1Hmii8w1SBgadAZhZ-67" vertex="1">
          <mxGeometry y="26" width="170" height="8" as="geometry" />
        </mxCell>
        <mxCell id="42G1Hmii8w1SBgadAZhZ-70" value="+ changeMedicalRecords( )&#xa;+ addMedicalRecords( )&#xa;+ deleteMedicalRecords( )&#xa;" style="text;strokeColor=none;fillColor=none;align=left;verticalAlign=top;spacingLeft=4;spacingRight=4;overflow=hidden;rotatable=0;points=[[0,0.5],[1,0.5]];portConstraint=eastwest;" parent="42G1Hmii8w1SBgadAZhZ-67" vertex="1">
          <mxGeometry y="34" width="170" height="100" as="geometry" />
        </mxCell>
        <mxCell id="42G1Hmii8w1SBgadAZhZ-71" style="edgeStyle=orthogonalEdgeStyle;rounded=0;orthogonalLoop=1;jettySize=auto;html=1;exitX=1;exitY=0.5;exitDx=0;exitDy=0;entryX=0;entryY=0.5;entryDx=0;entryDy=0;" parent="WIyWlLk6GJQsqaUBKTNV-1" source="42G1Hmii8w1SBgadAZhZ-63" target="42G1Hmii8w1SBgadAZhZ-70" edge="1">
          <mxGeometry relative="1" as="geometry" />
        </mxCell>
        <mxCell id="42G1Hmii8w1SBgadAZhZ-72" value="LOGIN" style="text;html=1;strokeColor=none;fillColor=none;align=center;verticalAlign=middle;whiteSpace=wrap;rounded=0;" parent="WIyWlLk6GJQsqaUBKTNV-1" vertex="1">
          <mxGeometry x="-20" y="190" width="60" height="30" as="geometry" />
        </mxCell>
        <mxCell id="42G1Hmii8w1SBgadAZhZ-73" value="" style="endArrow=none;html=1;rounded=0;entryX=0.498;entryY=1.004;entryDx=0;entryDy=0;entryPerimeter=0;" parent="WIyWlLk6GJQsqaUBKTNV-1" target="42G1Hmii8w1SBgadAZhZ-19" edge="1">
          <mxGeometry width="50" height="50" relative="1" as="geometry">
            <mxPoint x="160" y="260" as="sourcePoint" />
            <mxPoint x="210" y="210" as="targetPoint" />
          </mxGeometry>
        </mxCell>
        <mxCell id="42G1Hmii8w1SBgadAZhZ-74" value="LOGIN" style="text;html=1;strokeColor=none;fillColor=none;align=center;verticalAlign=middle;whiteSpace=wrap;rounded=0;" parent="WIyWlLk6GJQsqaUBKTNV-1" vertex="1">
          <mxGeometry x="160" y="210" width="60" height="30" as="geometry" />
        </mxCell>
        <mxCell id="42G1Hmii8w1SBgadAZhZ-75" value="Book Appointment" style="text;html=1;strokeColor=none;fillColor=none;align=center;verticalAlign=middle;whiteSpace=wrap;rounded=0;" parent="WIyWlLk6GJQsqaUBKTNV-1" vertex="1">
          <mxGeometry x="354" y="359" width="60" height="30" as="geometry" />
        </mxCell>
        <mxCell id="42G1Hmii8w1SBgadAZhZ-76" value="TREATS" style="text;html=1;strokeColor=none;fillColor=none;align=center;verticalAlign=middle;whiteSpace=wrap;rounded=0;" parent="WIyWlLk6GJQsqaUBKTNV-1" vertex="1">
          <mxGeometry x="-20" y="338" width="60" height="30" as="geometry" />
        </mxCell>
        <mxCell id="42G1Hmii8w1SBgadAZhZ-77" style="edgeStyle=orthogonalEdgeStyle;rounded=0;orthogonalLoop=1;jettySize=auto;html=1;exitX=1;exitY=0.5;exitDx=0;exitDy=0;entryX=0;entryY=0.5;entryDx=0;entryDy=0;" parent="WIyWlLk6GJQsqaUBKTNV-1" source="42G1Hmii8w1SBgadAZhZ-23" target="42G1Hmii8w1SBgadAZhZ-63" edge="1">
          <mxGeometry relative="1" as="geometry">
            <Array as="points">
              <mxPoint x="50" y="438" />
              <mxPoint x="50" y="678" />
            </Array>
          </mxGeometry>
        </mxCell>
        <mxCell id="42G1Hmii8w1SBgadAZhZ-78" value="ASSIST" style="text;html=1;strokeColor=none;fillColor=none;align=center;verticalAlign=middle;whiteSpace=wrap;rounded=0;" parent="WIyWlLk6GJQsqaUBKTNV-1" vertex="1">
          <mxGeometry y="600" width="60" height="30" as="geometry" />
        </mxCell>
        <mxCell id="42G1Hmii8w1SBgadAZhZ-79" value="MANAGES" style="text;html=1;strokeColor=none;fillColor=none;align=center;verticalAlign=middle;whiteSpace=wrap;rounded=0;" parent="WIyWlLk6GJQsqaUBKTNV-1" vertex="1">
          <mxGeometry x="-150" y="560" width="60" height="30" as="geometry" />
        </mxCell>
        <mxCell id="42G1Hmii8w1SBgadAZhZ-81" value="ASSIST" style="text;html=1;strokeColor=none;fillColor=none;align=center;verticalAlign=middle;whiteSpace=wrap;rounded=0;" parent="WIyWlLk6GJQsqaUBKTNV-1" vertex="1">
          <mxGeometry x="160" y="530" width="60" height="30" as="geometry" />
        </mxCell>
        <mxCell id="42G1Hmii8w1SBgadAZhZ-82" value="" style="endArrow=none;html=1;rounded=0;entryX=0.499;entryY=1.022;entryDx=0;entryDy=0;entryPerimeter=0;" parent="WIyWlLk6GJQsqaUBKTNV-1" target="42G1Hmii8w1SBgadAZhZ-36" edge="1">
          <mxGeometry width="50" height="50" relative="1" as="geometry">
            <mxPoint x="160" y="610" as="sourcePoint" />
            <mxPoint x="210" y="560" as="targetPoint" />
          </mxGeometry>
        </mxCell>
        <mxCell id="42G1Hmii8w1SBgadAZhZ-83" value="MANAGES" style="text;html=1;strokeColor=none;fillColor=none;align=center;verticalAlign=middle;whiteSpace=wrap;rounded=0;" parent="WIyWlLk6GJQsqaUBKTNV-1" vertex="1">
          <mxGeometry x="370" y="704" width="60" height="30" as="geometry" />
        </mxCell>
        <mxCell id="42G1Hmii8w1SBgadAZhZ-84" value="MANAGES" style="text;html=1;strokeColor=none;fillColor=none;align=center;verticalAlign=middle;whiteSpace=wrap;rounded=0;" parent="WIyWlLk6GJQsqaUBKTNV-1" vertex="1">
          <mxGeometry x="5" y="782" width="60" height="30" as="geometry" />
        </mxCell>
      </root>
    </mxGraphModel>
  </diagram>
</mxfile>
